<?xml version="1.0" ?><svg enable-background="new 0 0 64 64" height="64px" id="Layer_1" version="1.1" viewBox="0 0 64 64" width="64px" xml:space="preserve" xmlns="http://www.w3.org/2000/svg" xmlns:xlink="http://www.w3.org/1999/xlink"><circle cx="32" cy="32" fill="#E0E0D1" r="32"/><path d="M20,48c0,1.105-0.895,2-2,2l0,0c-1.105,0-2-0.895-2-2v-8c0-1.105,0.895-2,2-2l0,0  c1.105,0,2,0.895,2,2V48z" fill="#231F20" opacity="0.2"/><path d="M48,48c0,1.105-0.895,2-2,2l0,0c-1.105,0-2-0.895-2-2v-8c0-1.105,0.895-2,2-2l0,0  c1.105,0,2,0.895,2,2V48z" fill="#231F20" opacity="0.2"/><path d="M20,46c0,1.105-0.895,2-2,2l0,0c-1.105,0-2-0.895-2-2v-8c0-1.105,0.895-2,2-2l0,0c1.105,0,2,0.895,2,2V46z" fill="#E0995E"/><path d="M48,46c0,1.105-0.895,2-2,2l0,0c-1.105,0-2-0.895-2-2v-8c0-1.105,0.895-2,2-2l0,0c1.105,0,2,0.895,2,2V46z" fill="#E0995E"/><path d="M55.193,23.614C54.464,22.639,53.311,22,52,22h-8H30H18h-6c-2.209,0-4,1.791-4,4v12  c0,0.898,0.307,1.719,0.807,2.386C9.536,41.361,10.689,42,12,42h8h14h12h6c2.209,0,4-1.791,4-4V26  C56,25.102,55.693,24.281,55.193,23.614z" fill="#231F20" opacity="0.2"/><path d="M12,20c-2.209,0-4,1.791-4,4v12c0,0.898,0.307,1.719,0.807,2.386L18,20H12z" fill="#4F5D73"/><polygon fill="#4F5D73" points="30,20 20,40 34,40 44,20 "/><path d="M18,20L8.807,38.386C9.536,39.361,10.689,40,12,40h8l10-20H18z" fill="#F5CF87"/><path d="M46,40h6c2.209,0,4-1.791,4-4V24c0-0.898-0.307-1.719-0.807-2.386L46,40z" fill="#4F5D73"/><path d="M52,20h-8L34,40h12l9.193-18.386C54.464,20.639,53.311,20,52,20z" fill="#F5CF87"/></svg>